<svg viewBox="0 0 28 29" style="background-color:#ffffff00" xmlns="http://www.w3.org/2000/svg" width="28" height="29"><path d="M 23.6222 16.0141 L 27.9337 25.3124 C 28.109 25.6905 27.9246 26 27.524 26 L 0.476 26 C 0.0754 26 -0.109 25.6905 0.0663 25.3124 L 4.3777 16.0141 C 4.4463 15.866 4.6307 15.7451 4.7872 15.7451 L 8.4841 15.7451 C 8.5979 15.7451 8.7519 15.8199 8.8264 15.9104 C 9.0771 16.2147 9.3328 16.5119 9.5874 16.8062 C 9.8294 17.0856 10.0726 17.3685 10.3139 17.6581 L 5.9268 17.6581 C 5.7701 17.6581 5.5857 17.7792 5.5171 17.9271 L 2.6611 24.0869 L 25.3387 24.0869 L 22.4829 17.9271 C 22.4143 17.779 22.23 17.6581 22.0732 17.6581 L 17.6761 17.6581 C 17.9175 17.3685 18.1606 17.0856 18.4027 16.8062 C 18.6582 16.511 18.915 16.2145 19.1664 15.91 C 19.241 15.8198 19.3945 15.7451 19.5082 15.7451 L 23.2128 15.7451 C 23.3695 15.7451 23.5537 15.866 23.6222 16.0141 L 23.6222 16.0141 ZM 20.3384 9.6594 C 20.3384 14.7404 16.3097 15.6933 14.4149 20.5759 C 14.2609 20.9726 13.729 20.9706 13.575 20.5739 C 11.8657 16.1716 8.4216 14.9644 7.7626 11.0426 C 7.1139 7.1816 9.66 3.3997 13.3776 3.0307 C 17.1586 2.6555 20.3384 5.7676 20.3384 9.6594 L 20.3384 9.6594 ZM 17.3452 9.6594 C 17.3452 7.7172 15.8453 6.1428 13.9954 6.1428 C 12.1452 6.1428 10.6456 7.7172 10.6456 9.6594 C 10.6456 11.6019 12.1452 13.1763 13.9954 13.1763 C 15.8453 13.1763 17.3452 11.6019 17.3452 9.6594 L 17.3452 9.6594 ZM 17.3452 9.6594 L 17.3452 9.6594 Z" fill="#333"/></svg>