<svg xmlns="http://www.w3.org/2000/svg" viewBox="0 0 31 29" version="1.1" xml:space="preserve" x="0" y="0" width="31" height="29" background-color="#ffffff00"><path d="M30.6 14.8C30.3 14.5 30 14.3 29.6 14.3L26.4 14.3 26.4 12.9C26.4 12.6 26.3 12.4 26.2 12.3 26 12.1 25.8 12 25.6 12L20.4 12C20.2 12 20 12.1 19.8 12.3 19.7 12.4 19.6 12.6 19.6 12.9L19.6 14.3 16.4 14.3C16 14.3 15.7 14.5 15.4 14.8 15.1 15 15 15.4 15 15.8L15 19 31 19 31 15.8C31 15.4 30.9 15 30.6 14.8ZM25.3 15L20.7 15 20.7 13.2 25.3 13.2 25.3 15ZM25 21.6C25 21.8 24.9 21.9 24.8 22 24.7 22.2 24.6 22.2 24.4 22.2L21.6 22.2C21.4 22.2 21.3 22.2 21.2 22 21.1 21.9 21 21.8 21 21.6L21 20 15 20 15 24.5C15 24.9 15.1 25.3 15.4 25.6 15.7 25.9 16 26 16.4 26L29.6 26C30 26 30.3 25.9 30.6 25.6 30.9 25.3 31 24.9 31 24.5L31 20 25 20 25 21.6ZM2 24L2 25 1 25 1 24 2 24ZM2 22L2 23 1 23 1 22 2 22ZM2 20L2 21 1 21 1 20 2 20ZM2 18L2 19 1 19 1 18 2 18ZM2 16L2 17 1 17 1 16 2 16ZM0 26L3 26 3 14 1.8 14C0.8 14 0 14.8 0 15.8L0 26ZM6 22L8 22 8 24 6 24 6 22ZM14 14L14 14C14.1 13.7 14.2 13.4 14.5 13.2 14.8 12.8 15.2 12.7 15.7 12.7L18 12.7 18 5C18 3.9 17.1 3 16 3L6 3C4.9 3 4 3.9 4 5L4 26 10 26 10 22 12 22 12 26 14 26 14 14.3 14 14ZM10 18L12 18 12 20 10 20 10 18ZM10 14L12 14 12 16 10 16 10 14ZM6 18L8 18 8 20 6 20 6 18ZM6 14L8 14 8 16 6 16 6 14ZM14 10L16 10 16 12 14 12 14 10ZM14 6L16 6 16 8 14 8 14 6ZM10 10L12 10 12 12 10 12 10 10ZM10 6L12 6 12 8 10 8 10 6ZM6 10L8 10 8 12 6 12 6 10ZM6 6L8 6 8 8 6 8 6 6Z" fill="#333333"/></svg>