<svg width="23" height="19" viewBox="0 0 23 19" fill="none" xmlns="http://www.w3.org/2000/svg">
<path d="M1.56452 0.548386C0.974597 0.548386 0.5 1.02298 0.5 1.6129V3.74193C0.5 4.33185 0.974597 4.80645 1.56452 4.80645H3.69355C4.28347 4.80645 4.75806 4.33185 4.75806 3.74193V1.6129C4.75806 1.02298 4.28347 0.548386 3.69355 0.548386H1.56452ZM8.30645 1.25806C7.52137 1.25806 6.8871 1.89234 6.8871 2.67742C6.8871 3.4625 7.52137 4.09677 8.30645 4.09677H21.0806C21.8657 4.09677 22.5 3.4625 22.5 2.67742C22.5 1.89234 21.8657 1.25806 21.0806 1.25806H8.30645ZM8.30645 8.35484C7.52137 8.35484 6.8871 8.98911 6.8871 9.77419C6.8871 10.5593 7.52137 11.1935 8.30645 11.1935H21.0806C21.8657 11.1935 22.5 10.5593 22.5 9.77419C22.5 8.98911 21.8657 8.35484 21.0806 8.35484H8.30645ZM8.30645 15.4516C7.52137 15.4516 6.8871 16.0859 6.8871 16.871C6.8871 17.656 7.52137 18.2903 8.30645 18.2903H21.0806C21.8657 18.2903 22.5 17.656 22.5 16.871C22.5 16.0859 21.8657 15.4516 21.0806 15.4516H8.30645ZM0.5 8.70968V10.8387C0.5 11.4286 0.974597 11.9032 1.56452 11.9032H3.69355C4.28347 11.9032 4.75806 11.4286 4.75806 10.8387V8.70968C4.75806 8.11976 4.28347 7.64516 3.69355 7.64516H1.56452C0.974597 7.64516 0.5 8.11976 0.5 8.70968ZM1.56452 14.7419C0.974597 14.7419 0.5 15.2165 0.5 15.8064V17.9355C0.5 18.5254 0.974597 19 1.56452 19H3.69355C4.28347 19 4.75806 18.5254 4.75806 17.9355V15.8064C4.75806 15.2165 4.28347 14.7419 3.69355 14.7419H1.56452Z" fill="black" fill-opacity="0.5"/>
</svg>
