<svg id="Layer_1" data-name="Layer 1" xmlns="http://www.w3.org/2000/svg" xmlns:xlink="http://www.w3.org/1999/xlink" viewBox="0 0 16 16"><defs><style>.cls-1{fill:none;clip-rule:evenodd;}.cls-2{clip-path:url(#clip-path);}.cls-3{fill:url(#linear-gradient);}</style><clipPath id="clip-path"><path class="cls-1" d="M9.67,6.57h.78V8.05l1,.58,1.11.65v1.21l-2.36,1.37L7.85,13.22,5.48,11.86l-1.64-.95L5,10.26l2.89,1.67,3.62-2.09L7.85,7.76,4.23,9.84l-1.12.65V7.1l1.12-.64L7.84,4.38l3.63,2.09,1.11.65V8.4l-1.11-.64-.86-.5V6.41H9.51v.22l-1.68-1L4.23,7.74v.91l3.63-2.1,1.81,1ZM7.76,10H7.07v.67h.69Zm.18-.89v.72h.69V9.06Zm.69.89H7.94v.67h.69Zm-.87-.17V9.06H7.07v.72ZM3.11,5V6.32l1.12-.65L7.85,3.58l3.62,2.09,1.11.65V5L10.22,3.66,7.85,2.29,5.48,3.66Z"/></clipPath><linearGradient id="linear-gradient" x1="-0.22" y1="8.04" x2="20.11" y2="7.34" gradientUnits="userSpaceOnUse"><stop offset="0" stop-color="#916334"/><stop offset="1" stop-color="#e1b07f"/></linearGradient></defs><g class="cls-2"><rect class="cls-3" x="3.11" y="2.29" width="9.47" height="10.93"/></g></svg>