<svg width="114" height="131" viewBox="0 0 114 131" fill="none" xmlns="http://www.w3.org/2000/svg">
<g clip-path="url(#clip0_95_198)">
<mask id="mask0_95_198" style="mask-type:luminance" maskUnits="userSpaceOnUse" x="17" y="-1" width="81" height="94">
<path d="M72.8342 36.0476H79.5344V48.6143L88.1447 53.5826L97.6531 59.0702V69.3896L77.522 81.0051L57.391 92.6131L37.26 80.9975L23.2834 72.9368L32.7919 67.4493L57.391 81.6418L88.1409 63.8983L57.391 46.1548L26.6411 63.8983L17.1327 69.3858V59.218V51.4642V46.1548V40.5763L26.6411 35.0888L57.2925 17.4059L88.1447 35.2062L97.6531 40.6938V46.1548V51.6196L88.1447 46.132L80.8494 41.9216V34.7287H71.5229V36.5402L57.2584 28.3089L26.6449 45.9729V53.7266L57.5274 35.9111L72.8379 44.745V36.0476H72.8342ZM56.6634 64.804H50.7893V70.4583H56.6634V64.804ZM58.1186 57.2587V63.3488H63.9927V57.2587H58.1186ZM63.9965 64.804H58.1224V70.4583H63.9965V64.804ZM56.6634 63.3488V57.2587H50.7893V63.3488H56.6634ZM17.1289 22.9275V33.9026L26.6373 28.415L57.391 10.6715L88.1409 28.415L97.6493 33.9026V22.9275L77.5183 11.312L57.391 -0.303528L37.26 11.312L17.1289 22.9275Z" fill="white"/>
</mask>
<g mask="url(#mask0_95_198)">
<path d="M97.6493 -0.303528H17.1289V92.6131H97.6493V-0.303528Z" fill="url(#paint0_linear_95_198)"/>
</g>
<path d="M11.0139 107.249H4.36297L2.95319 110.092H-0.09375L6.23131 97.7143H9.35405L15.5161 110.092H12.3517L11.0139 107.249ZM10.184 105.495L7.76994 100.371L5.23082 105.495H10.184Z" fill="white"/>
<path d="M19.7706 97.7183V110.096H16.8184V97.7183H19.7706Z" fill="white"/>
<path d="M22.3277 110.66V110.019H25.2155V110.629C25.2155 111.433 25.6702 111.907 28.2927 111.907C31.2146 111.907 31.37 110.933 31.37 110.031V108.466C30.6537 109.091 29.3501 109.576 27.2164 109.576C22.9682 109.576 22.123 108.041 22.123 106.154V104.236C22.123 102.349 22.9682 100.814 27.2164 100.814C29.6229 100.814 31.01 101.432 31.6466 102.194L31.8096 101.06H34.3184V109.902C34.3184 111.865 33.3975 113.498 28.2927 113.498C23.6314 113.495 22.3277 112.49 22.3277 110.66ZM31.3662 106.116V104.304C31.3662 103.402 31.0933 102.478 28.2207 102.478C25.3481 102.478 25.0752 103.402 25.0752 104.304V106.116C25.0752 107.018 25.3481 107.943 28.2207 107.943C31.0933 107.943 31.3662 107.018 31.3662 106.116Z" fill="white"/>
<path d="M36.9785 97.9948H39.9307V99.6509H36.9785V97.9948ZM36.9785 101.057H39.9307V110.095H36.9785V101.057Z" fill="white"/>
<path d="M42.5429 101.057H45.0517L45.226 102.319C46.0787 101.353 47.4847 100.811 49.7282 100.811C53.2337 100.811 54.7382 102.084 54.7382 104.445V110.095H51.786V104.555C51.786 103.213 50.9523 102.478 48.7391 102.478C46.5259 102.478 45.4913 103.293 45.4913 104.604V110.095H42.5391L42.5429 101.057Z" fill="white"/>
<path d="M69.3008 104.339V106.81C69.3008 108.773 68.3799 110.338 63.2031 110.338C58.0226 110.338 57.1055 108.773 57.1055 106.81V104.339C57.1055 102.376 58.0264 100.811 63.2031 100.811C68.3799 100.811 69.3008 102.376 69.3008 104.339ZM66.3486 104.229C66.3486 103.327 66.1743 102.402 63.2031 102.402C60.2282 102.402 60.0539 103.327 60.0539 104.229V106.923C60.0539 107.825 60.2282 108.75 63.2031 108.75C66.1743 108.75 66.3486 107.825 66.3486 106.923V104.229Z" fill="white"/>
<path d="M80.4895 104.293V103.577C80.4895 102.974 80.0158 102.402 77.4426 102.402C74.8694 102.402 74.3956 102.876 74.3956 103.478V103.857C74.3956 105.673 83.5024 103.971 83.5024 107.162V107.761C83.5024 109.39 82.1343 110.342 77.4426 110.342C72.7471 110.342 71.3828 109.216 71.3828 107.587V106.855H74.2971V107.571C74.2971 108.174 74.7708 108.746 77.4464 108.746C80.1181 108.746 80.5919 108.272 80.5919 107.67V107.291C80.5919 105.476 71.523 107.177 71.523 103.986V103.388C71.523 101.762 72.8532 100.807 77.4464 100.807C82.0395 100.807 83.3697 101.936 83.3697 103.562V104.293H80.4895Z" fill="white"/>
<path d="M85.6758 97.7182H88.3096L96.9578 106.579L96.9426 97.7182H99.7054V110.095H97.0715L88.412 101.254L88.4385 110.095H85.6758V97.7182Z" fill="white"/>
<path d="M114.717 99.4766H109.328V110.095H106.375V99.4766H100.986V97.7182H114.717V99.4766Z" fill="white"/>
<path d="M31.7277 124.901L30.28 122.404H29.4917V124.901H28.4609V118.663H30.6325C31.1137 118.663 31.523 118.747 31.8603 118.914C32.1938 119.08 32.4439 119.304 32.6107 119.588C32.7774 119.869 32.8608 120.183 32.8608 120.532C32.8608 120.937 32.7433 121.309 32.5046 121.638C32.2658 121.972 31.8982 122.195 31.4056 122.317L32.9631 124.901H31.7277ZM29.4917 121.589H30.6325C31.019 121.589 31.3108 121.494 31.5079 121.301C31.7049 121.112 31.8035 120.854 31.8035 120.528C31.8035 120.206 31.7049 119.952 31.5155 119.77C31.3222 119.588 31.0304 119.497 30.6362 119.497H29.4955V121.589H29.4917Z" fill="white"/>
<path d="M35.6656 119.49V121.32H37.8371V122.154H35.6656V124.068H38.1099V124.902H34.6348V118.652H38.1099V119.486H35.6656V119.49Z" fill="white"/>
<path d="M43.6201 123.624H40.9863L40.5353 124.898H39.459L41.7139 118.648H42.9076L45.1625 124.898H44.0749L43.6201 123.624ZM43.3283 122.791L42.3051 119.891L41.2743 122.791H43.3283Z" fill="white"/>
<path d="M47.6167 124.075H49.7428V124.901H46.5859V118.663H47.6167V124.075Z" fill="white"/>
<path d="M54.896 119.49V121.32H57.0676V122.154H54.896V124.068H57.3404V124.901H53.8652V118.652H57.3404V119.486H54.896V119.49Z" fill="white"/>
<path d="M59.9921 124.742C59.6548 124.594 59.3895 124.386 59.1962 124.117C59.0029 123.848 58.9082 123.533 58.9082 123.173H60.011C60.0338 123.442 60.1437 123.662 60.3331 123.836C60.5226 124.011 60.7917 124.098 61.1328 124.098C61.489 124.098 61.7657 124.015 61.9665 123.844C62.1636 123.674 62.2659 123.454 62.2659 123.185C62.2659 122.976 62.2053 122.806 62.0802 122.673C61.9551 122.54 61.8036 122.442 61.6179 122.37C61.4322 122.298 61.1783 122.222 60.8523 122.135C60.443 122.029 60.1095 121.919 59.8518 121.809C59.5941 121.699 59.3781 121.525 59.1962 121.294C59.0143 121.059 58.9234 120.748 58.9234 120.361C58.9234 120.001 59.0143 119.687 59.1962 119.418C59.3781 119.149 59.632 118.94 59.958 118.796C60.2839 118.652 60.6591 118.58 61.0873 118.58C61.6974 118.58 62.1977 118.732 62.5842 119.035C62.9746 119.338 63.1906 119.751 63.2323 120.278H62.0916C62.0726 120.051 61.9665 119.857 61.7657 119.694C61.5648 119.531 61.3033 119.452 60.9774 119.452C60.6818 119.452 60.4392 119.528 60.2536 119.675C60.0679 119.823 59.9731 120.039 59.9731 120.323C59.9731 120.513 60.03 120.672 60.1474 120.793C60.2649 120.915 60.4165 121.013 60.5946 121.085C60.7765 121.157 61.0229 121.237 61.3374 121.32C61.7543 121.434 62.0916 121.547 62.3569 121.661C62.6184 121.775 62.8419 121.949 63.0276 122.184C63.2095 122.419 63.3043 122.737 63.3043 123.132C63.3043 123.45 63.2171 123.749 63.0466 124.03C62.8761 124.31 62.6221 124.538 62.2962 124.708C61.9665 124.879 61.58 124.962 61.1328 124.962C60.7083 124.962 60.3294 124.89 59.9921 124.742Z" fill="white"/>
<path d="M69.0428 118.66V119.494H67.3677V124.898H66.3369V119.494H64.6543V118.66H69.0428Z" fill="white"/>
<path d="M74.3252 123.624H71.6913L71.2403 124.898H70.1641L72.4189 118.648H73.6127L75.8676 124.898H74.78L74.3252 123.624ZM74.0372 122.79L73.0139 119.891L71.9831 122.79H74.0372Z" fill="white"/>
<path d="M81.3573 118.66V119.494H79.6822V124.898H78.6514V119.494H76.9688V118.66H81.3573Z" fill="white"/>
<path d="M83.8804 119.49V121.32H86.0519V122.154H83.8804V124.068H86.3248V124.901H82.8496V118.652H86.3248V119.486H83.8804V119.49Z" fill="white"/>
</g>
<defs>
<linearGradient id="paint0_linear_95_198" x1="-11.2334" y1="48.5166" x2="161.68" y2="42.5696" gradientUnits="userSpaceOnUse">
<stop stop-color="#916334"/>
<stop offset="1" stop-color="#E1B07F"/>
</linearGradient>
<clipPath id="clip0_95_198">
<rect width="114" height="130.946" fill="white"/>
</clipPath>
</defs>
</svg>
