<svg width="81" height="93" viewBox="0 0 81 93" fill="none" xmlns="http://www.w3.org/2000/svg">
<mask id="mask0_95_199" style="mask-type:luminance" maskUnits="userSpaceOnUse" x="0" y="-1" width="81" height="94">
<path d="M55.8342 36.0476H62.5344V48.6143L71.1447 53.5826L80.6531 59.0702V69.3896L60.522 81.0051L40.391 92.6131L20.26 80.9975L6.28343 72.9368L15.7919 67.4493L40.391 81.6418L71.1409 63.8983L40.391 46.1548L9.64113 63.8983L0.1327 69.3858V59.218V51.4642V46.1548V40.5763L9.64113 35.0888L40.2925 17.4059L71.1447 35.2062L80.6531 40.6938V46.1548V51.6196L71.1447 46.132L63.8494 41.9216V34.7287H54.5229V36.5402L40.2584 28.3089L9.64492 45.9729V53.7266L40.5274 35.9111L55.8379 44.745V36.0476H55.8342ZM39.6634 64.804H33.7893V70.4583H39.6634V64.804ZM41.1186 57.2587V63.3488H46.9927V57.2587H41.1186ZM46.9965 64.804H41.1224V70.4583H46.9965V64.804ZM39.6634 63.3488V57.2587H33.7893V63.3488H39.6634ZM0.128906 22.9275V33.9026L9.63734 28.415L40.391 10.6715L71.1409 28.415L80.6493 33.9026V22.9275L60.5183 11.312L40.391 -0.303528L20.26 11.312L0.128906 22.9275Z" fill="white"/>
</mask>
<g mask="url(#mask0_95_199)">
<path d="M80.6493 -0.303528H0.128906V92.6131H80.6493V-0.303528Z" fill="url(#paint0_linear_95_199)"/>
</g>
<defs>
<linearGradient id="paint0_linear_95_199" x1="-28.2334" y1="48.5166" x2="144.68" y2="42.5696" gradientUnits="userSpaceOnUse">
<stop stop-color="#916334"/>
<stop offset="1" stop-color="#E1B07F"/>
</linearGradient>
</defs>
</svg>
