<svg width="89" height="89" viewBox="0 0 89 89" fill="none" xmlns="http://www.w3.org/2000/svg">
<path d="M17.9531 44.2219V36.2953C17.9531 29.2546 20.75 22.5023 25.7286 17.5237C30.7071 12.5452 37.4594 9.74829 44.5002 9.74829C51.5409 9.74829 58.2932 12.5452 63.2717 17.5237C68.2503 22.5023 71.0472 29.2546 71.0472 36.2953V44.2219" stroke="#C09062" stroke-width="4.17188" stroke-linecap="round"/>
<path d="M16.7695 44.2219H23.3055V62.8284H16.7695C15.6631 62.8284 14.6019 62.3889 13.8196 61.6065C13.0372 60.8241 12.5977 59.763 12.5977 58.6566V48.3937C12.5977 47.2873 13.0372 46.2262 13.8196 45.4438C14.6019 44.6614 15.6631 44.2219 16.7695 44.2219Z" stroke="#C09062" stroke-width="4.17188" stroke-linecap="round"/>
<path d="M72.2285 62.8284H65.6926V44.2219H72.2285C73.335 44.2219 74.3961 44.6614 75.1785 45.4438C75.9609 46.2262 76.4004 47.2873 76.4004 48.3937V58.6566C76.4004 59.763 75.9609 60.8241 75.1785 61.6065C74.3961 62.3889 73.335 62.8284 72.2285 62.8284Z" stroke="#C09062" stroke-width="4.17188" stroke-linecap="round"/>
<path d="M71.8939 63.3569V70.31C71.8939 71.7853 71.3079 73.2001 70.2647 74.2433C69.2215 75.2864 67.8067 75.8725 66.3314 75.8725H50.8398" stroke="#C09062" stroke-width="4.17188" stroke-linecap="round"/>
<path d="M48.0453 72.2013H42.3438C40.8077 72.2013 39.5625 73.4465 39.5625 74.9825V76.4705C39.5625 78.0066 40.8077 79.2518 42.3438 79.2518H48.0453C49.5814 79.2518 50.8266 78.0066 50.8266 76.4705V74.9825C50.8266 73.4465 49.5814 72.2013 48.0453 72.2013Z" stroke="#C09062" stroke-width="4.17188" stroke-linecap="round"/>
</svg>
