<svg width="59" height="73" viewBox="0 0 59 73" fill="none" xmlns="http://www.w3.org/2000/svg">
<path d="M18.1257 17.5417H15.0923C10.8453 17.5417 8.72171 17.5417 7.09956 18.3682C5.67264 19.0952 4.51254 20.2553 3.78553 21.6822C2.95898 23.3044 2.95898 25.428 2.95898 29.675V58.4917C2.95898 62.7387 2.95898 64.8624 3.78553 66.4845C4.51254 67.9113 5.67264 69.0716 7.09956 69.7984C8.72171 70.625 10.8453 70.625 15.0923 70.625H28.7423C32.9894 70.625 35.1131 70.625 36.7351 69.7984C38.162 69.0716 39.3222 67.9113 40.0491 66.4845C40.8756 64.8624 40.8756 62.7387 40.8756 58.4917V55.4583M56.0423 21.3333V43.325C56.0423 47.572 56.0423 49.6958 55.2157 51.3178C54.4889 52.7446 53.3286 53.9049 51.9018 54.6317C50.2797 55.4583 48.156 55.4583 43.909 55.4583H30.259C26.0119 55.4583 23.8882 55.4583 22.2662 54.6317C20.8393 53.9049 19.6792 52.7446 18.9522 51.3178C18.1257 49.6958 18.1257 47.572 18.1257 43.325V14.5083C18.1257 10.2613 18.1257 8.13773 18.9522 6.51558C19.6792 5.08866 20.8393 3.92856 22.2662 3.20155C23.8882 2.375 26.0119 2.375 30.259 2.375H37.084M56.0423 21.3333L37.084 2.375M56.0423 21.3333H43.1507C41.0269 21.3333 39.9653 21.3333 39.1542 20.9201C38.4406 20.5565 37.8609 19.9765 37.4973 19.263C37.084 18.452 37.084 17.3902 37.084 15.2667V2.375" stroke="#C09062" stroke-width="4" stroke-linecap="round" stroke-linejoin="round"/>
</svg>
