<svg width="54" height="48" viewBox="0 0 54 48" fill="none" xmlns="http://www.w3.org/2000/svg">
<path d="M43.2794 13.146V10.9753C43.2794 7.93596 43.2793 6.41628 42.6878 5.25543C42.1677 4.23429 41.3374 3.4041 40.3163 2.88383C39.1555 2.29233 37.6357 2.29233 34.5964 2.29233H11.2611C8.22173 2.29233 6.70208 2.29233 5.54123 2.88383C4.52009 3.4041 3.68989 4.23429 3.16962 5.25543C2.57812 6.41628 2.57812 7.93596 2.57812 10.9753V13.146M2.57812 13.146V37.024C2.57812 40.0633 2.57812 41.5831 3.16962 42.7439C3.68989 43.765 4.52009 44.5953 5.54123 45.1154C6.70208 45.707 8.22173 45.707 11.2611 45.707H42.7367C45.776 45.707 47.2957 45.707 48.4565 45.1154C49.4776 44.5953 50.3079 43.765 50.8281 42.7439C51.4196 41.5831 51.4196 40.0633 51.4196 37.024V21.8289C51.4196 18.7896 51.4196 17.2699 50.8281 16.1091C50.3079 15.088 49.4776 14.2578 48.4565 13.7375C47.2957 13.146 45.776 13.146 42.7367 13.146H2.57812ZM51.4196 23.9996H45.9928C42.9955 23.9996 40.5659 26.4292 40.5659 29.4265C40.5659 32.4237 42.9955 34.8533 45.9928 34.8533H51.4196" stroke="#C09062" stroke-width="4" stroke-linecap="round" stroke-linejoin="round"/>
</svg>
