<svg viewBox="0 0 24 29" style="background-color:#ffffff00" xmlns="http://www.w3.org/2000/svg" width="24" height="29"><path d="M2 24v1H1v-1h1zm0-2v1H1v-1h1zm0-2v1H1v-1h1zm0-2v1H1v-1h1zm0-2v1H1v-1h1zM0 26h3V14H1.75C.78 14 0 14.78 0 15.75V26zm20-2h2v1h-2v-1zm0-2h2v1h-2v-1zm0-2h2v1h-2v-1zm0-2h2v1h-2v-1zm0-2h2v1h-2v-1zm0-2h2v1h-2v-1zm0-2h2v1h-2v-1zm4 14V11.75c0-.97-.78-1.75-1.75-1.75H19v16h5zm-10-4h2v2h-2v-2zm-8 0h2v2H6v-2zm8-4h2v2h-2v-2zm0-4h2v2h-2v-2zm-4 4h2v2h-2v-2zm0-4h2v2h-2v-2zm-4 4h2v2H6v-2zm0-4h2v2H6v-2zm8-4h2v2h-2v-2zm0-4h2v2h-2V6zm-4 4h2v2h-2v-2zm0-4h2v2h-2V6zm-4 4h2v2H6v-2zm0-4h2v2H6V6zM4 26h6v-4h2v4h6V4.96C18 3.88 17.12 3 16.04 3H5.96C4.88 3 4 3.88 4 4.96V26z" fill="#333"/></svg>