<svg xmlns="http://www.w3.org/2000/svg" viewBox="0 0 31 29" version="1.1" xml:space="preserve" x="0" y="0" width="31" height="29" background-color="#ffffff00"><path d="M26.3 18.1C26.1 17.9 26 17.9 25.8 17.9L23.6 17.9C23.1 16.5 22.4 13.7 21.6 13.2 18.9 11.4 11.6 11.4 8.9 13.2 8.1 13.7 7.4 16.5 6.9 17.9L4.7 17.9C4.5 17.9 4.4 17.9 4.2 18.1 4.1 18.2 4.1 18.4 4.1 18.6L4.5 20.1C4.5 20.4 4.7 20.6 5 20.6L5.7 20.6C5 21.3 4.7 22.2 4.7 23.1 4.7 24.2 5.1 25.2 5.9 25.9L5.9 26 5.9 28.1C5.9 28.6 6.3 29 6.8 29L8.8 29C9.3 29 9.7 28.6 9.7 28.1L9.7 27.3 20.9 27.3 20.9 28.1C20.9 28.6 21.2 29 21.7 29L23.7 29C24.2 29 24.6 28.6 24.6 28.1L24.6 26C25.4 25.2 25.8 24.2 25.8 23.2 25.8 22.2 25.5 21.3 24.8 20.6L25.5 20.6C25.8 20.6 26 20.4 26.1 20.1L26.4 18.6C26.4 18.4 26.4 18.2 26.3 18.1ZM9.8 14.7C12 13.2 18.5 13.2 20.7 14.7 21.1 14.9 21.7 17.4 22.2 18.8L8.4 18.8C8.8 17.4 9.4 16.3 9.8 16L9.8 14.7ZM7.3 23.3C7.3 22.4 8 21.6 8.9 21.6 9.9 21.6 10.6 22.4 10.6 23.3 10.6 24.2 9.9 25 8.9 25 8 25 7.3 24.2 7.3 23.3ZM21.6 25C20.7 25 19.9 24.2 19.9 23.3 19.9 22.4 20.7 21.6 21.6 21.6 22.5 21.6 23.3 22.4 23.3 23.3 23.3 24.2 22.5 25 21.6 25ZM1.5 12.8C1.5 12.8 2.4 14.4 4.3 12.8L15.9 2.9 25.4 12.7C27.7 14.3 28.5 12.7 28.5 12.7L15.9 0 1.5 12.8Z" fill="#333333"/></svg>