<svg width="91" height="91" viewBox="0 0 91 91" fill="none" xmlns="http://www.w3.org/2000/svg">
<path d="M34.1257 26.5417H31.0923C26.8453 26.5417 24.7217 26.5417 23.0996 27.3682C21.6726 28.0952 20.5125 29.2553 19.7855 30.6822C18.959 32.3044 18.959 34.428 18.959 38.675V67.4917C18.959 71.7387 18.959 73.8624 19.7855 75.4845C20.5125 76.9113 21.6726 78.0716 23.0996 78.7984C24.7217 79.625 26.8453 79.625 31.0923 79.625H44.7423C48.9894 79.625 51.1131 79.625 52.7351 78.7984C54.162 78.0716 55.3222 76.9113 56.0491 75.4845C56.8756 73.8624 56.8756 71.7387 56.8756 67.4917V64.4583M72.0423 30.3333V52.325C72.0423 56.572 72.0423 58.6958 71.2157 60.3178C70.4889 61.7446 69.3286 62.9049 67.9018 63.6317C66.2797 64.4583 64.156 64.4583 59.909 64.4583H46.259C42.0119 64.4583 39.8882 64.4583 38.2662 63.6317C36.8393 62.9049 35.6792 61.7446 34.9522 60.3178C34.1257 58.6958 34.1257 56.572 34.1257 52.325V23.5083C34.1257 19.2613 34.1257 17.1377 34.9522 15.5156C35.6792 14.0887 36.8393 12.9286 38.2662 12.2015C39.8882 11.375 42.0119 11.375 46.259 11.375H53.084M72.0423 30.3333L53.084 11.375M72.0423 30.3333H59.1507C57.0269 30.3333 55.9653 30.3333 55.1542 29.9201C54.4406 29.5565 53.8609 28.9765 53.4973 28.263C53.084 27.452 53.084 26.3902 53.084 24.2667V11.375" stroke="#C09062" stroke-width="4" stroke-linecap="round" stroke-linejoin="round"/>
</svg>
