<svg width="60" height="60" viewBox="0 0 60 60" fill="none" xmlns="http://www.w3.org/2000/svg">
<path d="M17.5 54.9996V27.4997M5 32.4996V49.9996C5 52.7611 7.23857 54.9996 10 54.9996H43.5655C47.2675 54.9996 50.4155 52.2989 50.9785 48.6401L53.6707 31.1401C54.3697 26.5969 50.8545 22.4997 46.258 22.4997H37.5C36.1192 22.4997 35 21.3804 35 19.9997V11.1643C35 7.75964 32.24 4.99966 28.8355 4.99966C28.0232 4.99966 27.2875 5.47791 26.9577 6.21996L18.1598 26.0149C17.7586 26.9179 16.8633 27.4997 15.8753 27.4997H10C7.23857 27.4997 5 29.7382 5 32.4996Z" stroke="#C09062" stroke-width="4" stroke-linecap="round" stroke-linejoin="round"/>
</svg>
