<svg width="62" height="57" viewBox="0 0 62 57" fill="none" xmlns="http://www.w3.org/2000/svg">
<path d="M7.75195 23.8336C7.75195 14.0912 7.75195 9.22004 10.7785 6.19346C13.8051 3.1669 18.6762 3.1669 28.4186 3.1669H33.5853C43.3276 3.1669 48.1989 3.1669 51.2253 6.19346C54.252 9.22004 54.252 14.0912 54.252 23.8336V34.1669C54.252 43.9092 54.252 48.7806 51.2253 51.8069C48.1989 54.8336 43.3276 54.8336 33.5853 54.8336H28.4186C18.6762 54.8336 13.8051 54.8336 10.7785 51.8069C7.75195 48.7806 7.75195 43.9092 7.75195 34.1669V23.8336Z" stroke="#C09062" stroke-width="3.875"/>
<path d="M20.668 29.0002H41.3346" stroke="#C09062" stroke-width="3.875" stroke-linecap="round"/>
<path d="M20.668 18.6669H41.3346" stroke="#C09062" stroke-width="3.875" stroke-linecap="round"/>
<path d="M20.668 39.3336H33.5846" stroke="#C09062" stroke-width="3.875" stroke-linecap="round"/>
</svg>
